<svg xmlns="http://www.w3.org/2000/svg"  viewBox="0 0 512 512" width="67px" height="67px" fill-rule="evenodd" clip-rule="evenodd" image-rendering="optimizeQuality" shape-rendering="geometricPrecision" text-rendering="geometricPrecision"><path fill="#2b2a29" d="M257 380l-1 -1 -1 1 0 -2c-13,-12 -66,-69 -67,-134 -1,-64 52,-112 67,-124l0 -2 1 1 1 -1 0 2c15,12 68,61 67,124 -1,66 -54,122 -67,134l0 2zm190 -217c15,0 27,12 27,27 0,15 -12,27 -27,27 -15,0 -27,-12 -27,-27 0,-15 12,-27 27,-27zm-120 -69c15,0 27,12 27,27 0,15 -12,27 -27,27 -15,0 -27,-12 -27,-27 0,-15 12,-27 27,-27zm-142 0c15,0 27,12 27,27 0,15 -12,27 -27,27 -15,0 -27,-12 -27,-27 0,-15 12,-27 27,-27zm-126 69c15,0 27,12 27,27 0,15 -12,27 -27,27 -15,0 -27,-12 -27,-27 0,-15 12,-27 27,-27zm148 221c-5,-1 -12,-4 -20,-7 -21,-9 -43,-23 -69,-57 -26,-34 -24,-83 -24,-83l-68 17c0,0 17,44 41,80l0 0c0,0 44,85 186,85 142,0 180,-66 194,-89l0 0c23,-35 38,-76 38,-76l-68 -17c0,0 2,49 -24,83 -26,34 -48,48 -69,57 -35,15 -82,15 -117,7zm119 -206c0,0 26,45 16,89 -10,44 -52,106 -52,106 0,0 84,-41 100,-81 16,-41 -3,-139 -3,-139l-62 25zm-142 0c0,0 -26,45 -16,89 10,44 52,106 52,106 0,0 -84,-41 -100,-81 -16,-41 3,-139 3,-139l62 25z"/></svg>