<svg xmlns="http://www.w3.org/2000/svg"  viewBox="0 0 512 512" width="67px" height="67px" fill-rule="evenodd" clip-rule="evenodd" image-rendering="optimizeQuality" shape-rendering="geometricPrecision" text-rendering="geometricPrecision"><path fill="#2b2a29" d="M256 460c8,1 69,3 105,-25 40,-30 47,-55 47,-55l-29 -4c0,0 -6,-42 28,-83 34,-41 88,-28 88,-28 0,0 -4,-41 -41,-52 -38,-11 -74,8 -74,8 0,0 10,-56 -16,-88 -25,-32 -39,-35 -39,-35 0,0 -59,31 -69,71 -10,-40 -69,-71 -69,-71 0,0 -13,4 -39,35 -25,32 -16,88 -16,88 0,0 -36,-18 -74,-8 -38,11 -41,52 -41,52 0,0 54,-13 88,28 34,41 28,83 28,83l-29 4c0,0 7,25 47,55 37,28 97,25 105,25zm-175 -326c15,0 28,12 28,28 0,15 -12,28 -28,28 -15,0 -28,-12 -28,-28 0,-15 12,-28 28,-28zm349 0c15,0 28,12 28,28 0,15 -12,28 -28,28 -15,0 -28,-12 -28,-28 0,-15 12,-28 28,-28zm-175 -82c15,0 28,12 28,28 0,15 -12,28 -28,28 -15,0 -28,-12 -28,-28 0,-15 12,-28 28,-28z"/></svg>