<svg xmlns="http://www.w3.org/2000/svg"  viewBox="0 0 64 64" width="64px" height="64px"><path d="M 4 8 L 4 15.5 L 4.2636719 15.992188 C 4.2636719 15.992188 8.4794531 23.407312 16.939453 28.695312 C 19.858165 30.5193 23.235474 31.490214 26.119141 32.275391 C 26.241725 34.038005 26.511148 36.463413 27.203125 38.751953 C 25.007236 40.699551 22.399961 41.874256 19.5 42.5 C 19.232 43.33 19.371 43.852 20 44 C 23.203448 43.471348 25.960071 42.493516 28.189453 40.986328 C 29.940533 43.375971 34.652344 46.681641 34.652344 46.681641 C 34.999344 46.221641 35.211578 45.826266 35.767578 45.697266 C 35.767578 45.697266 31.126 41.793391 30 38.775391 C 29.336006 36.994407 29.321103 34.871928 29.441406 33.287109 C 34.119919 35.038754 41.891324 39.373481 44.667969 42.769531 L 46.724609 43.1875 C 46.488609 42.7265 46.301703 42.192 46.220703 41.5 C 42.723703 37.222 33.513047 30.829 28.748047 29.5 C 25.898047 28.705 22.227547 27.284687 19.060547 25.304688 C 18.255194 24.801395 17.497865 24.26349 16.773438 23.712891 C 17.399813 23.320255 18.163433 23 19 23 C 20.788745 23 22.944489 23.040672 24.9375 22.642578 C 30.116486 26.209672 36.201453 26.183216 41.154297 25.136719 C 40.662297 24.799719 40.533453 24.384469 40.939453 23.855469 C 36.105959 24.291727 31.621912 24.06146 27.908203 21.550781 C 28.299413 21.307709 28.66683 21.026217 29 20.695312 C 31.7 18.014312 35.894531 18 35.894531 18 C 36.001531 17.654 36.191 17.282953 36.5 16.876953 C 36.5 16.876953 30.881 15.550313 27.5 18.695312 C 25.381 20.667313 21.446 20 19 20 C 16.845223 20 14.985553 20.723582 13.896484 21.265625 C 9.7032074 17.27655 7.5 13.277344 7.5 13.277344 L 4 8 z M 38.472656 9.5859375 L 38.21875 10.605469 L 37.582031 9.7148438 C 36.945031 10.223844 36.817266 11.113953 37.072266 11.876953 C 37.454266 13.276953 39.236328 14.423828 39.236328 14.423828 C 39.236328 14.423828 40.255047 12.640281 39.873047 11.113281 C 39.873047 10.476281 39.235656 9.5859375 38.472656 9.5859375 z M 42.900391 11.195312 C 42.321906 11.129734 41.655187 11.36825 41.273438 11.75 C 40.127437 12.641 39.873047 14.804687 39.873047 14.804688 C 39.873047 14.804688 42.035641 15.058969 43.181641 14.167969 C 43.690641 13.531969 44.199266 12.641859 44.072266 12.005859 L 43.054688 12.259766 L 43.435547 11.367188 C 43.276547 11.271688 43.093219 11.217172 42.900391 11.195312 z M 35.541016 13.382812 C 35.003781 13.436297 34.431031 13.722672 34.144531 14.294922 L 35.035156 14.804688 L 34.144531 15.185547 C 34.399531 15.949547 35.291734 16.332031 35.927734 16.332031 C 37.455734 16.459031 38.982422 15.058594 38.982422 15.058594 C 38.982422 15.058594 37.581688 13.531297 36.054688 13.404297 C 35.895437 13.372297 35.720094 13.364984 35.541016 13.382812 z M 41.050781 15.091797 C 40.382656 15.091672 39.873047 15.185547 39.873047 15.185547 C 39.873047 15.185547 40.381297 17.222281 41.654297 18.113281 C 42.163297 18.494281 43.055406 18.622234 43.691406 18.240234 L 43.181641 17.349609 L 44.199219 17.476562 C 44.326219 16.713562 43.690641 15.950359 43.181641 15.568359 C 42.545141 15.186859 41.718906 15.091922 41.050781 15.091797 z M 39.363281 15.568359 C 39.363281 15.568359 37.455359 16.332422 36.818359 17.732422 C 36.564359 18.368422 36.563266 19.258531 37.072266 19.894531 L 37.835938 19.259766 L 37.964844 20.277344 C 38.727844 20.277344 39.363188 19.513953 39.617188 18.876953 C 40.126188 17.476953 39.363281 15.568359 39.363281 15.568359 z M 46.109375 17.732422 L 45.982422 19.005859 L 44.964844 18.113281 C 44.327844 18.749281 44.326984 20.023062 44.708984 20.914062 C 45.472984 22.695062 48.017578 23.714844 48.017578 23.714844 C 48.017578 23.714844 49.036437 21.168719 48.273438 19.386719 C 47.891438 18.623719 47.127375 17.732422 46.109375 17.732422 z M 52.53125 19.107422 C 51.803516 19.083516 51.041453 19.417531 50.564453 19.894531 C 49.164453 21.167531 48.908203 23.841797 48.908203 23.841797 C 48.908203 23.841797 51.582375 23.968312 53.109375 22.695312 C 53.745375 22.059313 54.382 21.041438 54 20.023438 L 52.726562 20.404297 L 53.236328 19.259766 C 53.013578 19.164266 52.773828 19.115391 52.53125 19.107422 z M 43.691406 22.822266 C 42.800406 22.949266 41.782391 23.458609 41.400391 24.349609 L 42.544922 24.859375 L 41.400391 25.494141 C 41.782391 26.385141 43.055312 26.767625 43.945312 26.640625 C 45.855312 26.513625 47.636719 24.476563 47.636719 24.476562 C 47.636719 24.476562 45.600406 22.694266 43.691406 22.822266 z M 51.681641 24.175781 C 50.214078 24.104484 48.78125 24.605469 48.78125 24.605469 C 48.78125 24.605469 49.673078 27.150016 51.455078 28.041016 C 52.218078 28.423016 53.491859 28.422156 54.255859 27.785156 L 53.490234 26.767578 L 54.763672 26.767578 C 54.763672 25.749578 53.873375 24.858563 53.109375 24.476562 C 52.663875 24.285812 52.170828 24.199547 51.681641 24.175781 z M 48.144531 24.986328 C 48.144531 24.986328 45.981609 26.514828 45.599609 28.423828 C 45.472609 29.186828 45.726234 30.45975 46.490234 30.96875 L 47.255859 29.949219 L 47.636719 31.222656 C 48.527719 30.967656 49.163969 29.949594 49.417969 29.058594 C 49.672969 27.149594 48.144531 24.986328 48.144531 24.986328 z M 49.318359 37.617188 L 49.027344 39.380859 L 47.740234 38.109375 C 46.770234 38.913375 46.603906 40.688953 47.003906 41.876953 C 47.792906 44.379953 51.083984 46.091797 51.083984 46.091797 C 51.083984 46.091797 52.798766 42.801828 52.009766 40.298828 C 51.621766 38.984828 50.586359 37.736187 49.318359 37.617188 z M 57.503906 39.933594 C 56.655693 39.952852 55.762813 40.298906 55.164062 40.722656 C 53.097062 42.318656 52.501953 45.970703 52.501953 45.970703 C 52.501953 45.970703 56.151703 46.566422 58.345703 44.982422 C 59.164703 44.418422 60.068641 42.970969 59.806641 41.667969 L 58.123047 41.892578 L 58.910156 40.304688 C 58.504781 40.027187 58.012834 39.922039 57.503906 39.933594 z M 17.0625 40.599609 C 16.1365 40.652609 15.416703 41.533344 15.220703 42.402344 C 14.705703 44.112344 15.775391 46.310547 15.775391 46.310547 C 15.775391 46.310547 18.000625 45.115594 18.640625 43.433594 C 18.808625 42.688594 18.811391 41.514609 18.150391 40.974609 L 17.306641 41.828125 L 17.0625 40.599609 z M 11.660156 42.693359 C 11.302219 42.687629 10.947484 42.761406 10.662109 42.941406 L 11.212891 43.978516 L 10.066406 43.849609 C 9.8704063 44.718609 10.448375 45.631875 11.109375 46.171875 C 12.556375 47.280875 15.013672 46.791016 15.013672 46.791016 C 15.013672 46.791016 14.648172 44.359953 13.201172 43.251953 C 12.865547 42.931953 12.256719 42.70291 11.660156 42.693359 z M 45.396484 44.025391 C 44.232484 44.172391 42.641625 44.791719 42.015625 46.011719 L 43.603516 46.798828 L 42 47.544922 C 42.527 48.744922 44.127297 49.405766 45.279297 49.384766 C 47.964297 49.379766 50.632813 46.816406 50.632812 46.816406 C 50.632812 46.816406 48.069484 44.148391 45.396484 44.025391 z M 19.630859 44.830078 C 17.904859 44.963078 16.283203 46.947266 16.283203 46.947266 C 16.283203 46.947266 18.267484 48.567547 20.021484 48.310547 C 20.794484 48.353547 21.831344 47.804547 22.027344 46.935547 L 20.9375 46.560547 L 22.001953 45.886719 C 21.520953 45.125719 20.431859 44.749078 19.630859 44.830078 z M 31.890625 46.222656 C 31.7924 46.219898 31.695109 46.224359 31.599609 46.240234 L 31.726562 47.259766 L 30.835938 46.75 C 30.454937 47.386 30.709797 48.405016 31.091797 49.041016 C 31.982797 50.314016 34.273438 50.695312 34.273438 50.695312 C 34.273438 50.695312 34.655719 48.405812 33.636719 47.132812 C 33.303344 46.687438 32.578197 46.241961 31.890625 46.222656 z M 37.291016 46.222656 C 36.60343 46.243697 35.879172 46.703266 35.544922 47.259766 C 34.654922 48.532766 34.908203 50.822266 34.908203 50.822266 C 34.908203 50.822266 37.073797 50.440969 38.091797 49.167969 C 38.600797 48.404969 38.855703 47.386 38.345703 46.75 L 37.455078 47.259766 L 37.582031 46.240234 C 37.486531 46.224359 37.389242 46.21965 37.291016 46.222656 z M 55.226562 47.037109 C 53.627686 46.981348 52.244141 47.351562 52.244141 47.351562 C 52.244141 47.351562 53.191187 50.891812 55.492188 52.257812 C 56.585187 52.870812 58.221359 53.151375 59.318359 52.359375 L 58.308594 50.857422 L 60.082031 51.023438 C 60.200031 49.756437 59.178938 48.383531 58.085938 47.769531 C 57.223062 47.257281 56.185889 47.070566 55.226562 47.037109 z M 51.21875 47.382812 C 51.21875 47.382812 48.205844 49.530016 47.714844 52.041016 C 47.469844 53.296016 47.823297 54.990469 48.904297 55.730469 L 49.933594 54.292969 L 50.412109 56 C 51.715109 55.738 52.618281 54.289203 52.863281 53.033203 C 53.366281 50.396203 51.21875 47.382812 51.21875 47.382812 z M 15.648438 47.457031 C 15.648438 47.457031 14.715391 49.856609 15.525391 51.474609 C 16.006391 52.234609 16.735156 53.050047 17.660156 52.998047 L 17.664062 51.824219 L 18.546875 52.544922 C 19.086875 51.883922 19.088422 50.710516 18.732422 49.978516 C 17.922422 48.361516 15.648438 47.457031 15.648438 47.457031 z M 13.664062 47.5 C 12.861688 47.515 11.886 47.653438 11.1875 48.148438 C 10.5785 48.532438 9.8292031 49.538187 10.033203 50.367188 L 11.236328 50.246094 L 10.611328 51.279297 C 11.424328 51.723297 12.529672 51.451406 13.138672 51.066406 C 14.535672 50.076406 15.095703 47.59375 15.095703 47.59375 C 15.095703 47.59375 14.466437 47.485 13.664062 47.5 z M 37.886719 50.369141 C 36.497684 50.356891 35.035156 51.332031 35.035156 51.332031 C 35.035156 51.332031 36.308937 53.241047 37.835938 53.623047 C 38.599938 53.750047 39.617953 53.623375 40.126953 52.859375 L 39.236328 52.222656 L 40.255859 51.96875 C 40.127859 51.20475 39.235656 50.568406 38.472656 50.441406 C 38.281656 50.393656 38.085152 50.370891 37.886719 50.369141 z M 31.046875 50.740234 C 30.845064 50.748957 30.645953 50.774516 30.455078 50.822266 C 29.945078 51.076266 29.055734 51.713563 28.927734 52.476562 L 29.945312 52.603516 L 29.181641 53.367188 C 29.690641 54.003188 30.708656 54.003953 31.472656 53.876953 C 32.999656 53.367953 34.017578 51.458984 34.017578 51.458984 C 34.017578 51.458984 32.459549 50.679176 31.046875 50.740234 z M 34.78125 51.585938 C 34.78125 51.585938 33.382719 53.367531 33.636719 54.894531 C 33.509719 55.658531 34.01725 56.550688 34.78125 56.804688 L 35.164062 55.785156 L 35.800781 56.677734 C 36.436781 56.295734 36.691406 55.277672 36.691406 54.513672 C 36.436406 52.986672 34.78125 51.585938 34.78125 51.585938 z"/></svg>